<svg width="73" height="30" viewBox="0 0 73 30" fill="none" xmlns="http://www.w3.org/2000/svg">
<path d="M30.9521 20.2504H35.2348C36.7921 20.2504 37.7168 19.2527 37.7168 17.9387C37.7168 16.5274 36.7921 15.8947 35.2835 15.8947H30.9521V20.2504ZM35.0158 9.64106H30.9521V13.145H35.2105C36.5488 13.145 37.2544 12.5367 37.2544 11.3931C37.2544 10.1521 36.5974 9.64106 35.0158 9.64106ZM34.9671 23H27.6915V6.84274H35.6485C38.8118 6.84274 40.5151 8.54606 40.5151 11.2471C40.5151 12.634 39.6634 13.802 38.5441 14.2644C39.9068 14.7754 41.0018 15.8704 41.0018 18.182C41.0018 21.1264 39.0308 23 34.9671 23ZM48.9884 18.4497L49.0127 17.1357C48.6964 17.452 48.1367 17.6224 46.9687 17.8414C45.1681 18.182 44.5841 18.693 44.5841 19.715C44.5841 20.6154 45.1194 21.0534 46.1171 21.0534C47.7474 21.0534 48.9641 19.861 48.9884 18.4497ZM52.1761 23H49.2317C49.1344 22.708 49.0614 22.2944 49.0371 21.9294C48.2827 22.7567 47.0174 23.3163 45.4114 23.3163C42.6861 23.3163 41.4208 21.978 41.4208 20.0314C41.4208 16.576 43.7324 16.1867 46.9201 15.7487C48.5017 15.5297 48.9397 15.2134 48.9397 14.386C48.9397 13.6074 48.1611 13.145 46.9201 13.145C45.4844 13.145 44.9004 13.8507 44.7544 14.9214H41.8101C41.8588 12.4394 43.2214 10.7117 47.0661 10.7117C50.8621 10.7117 52.1761 12.415 52.1761 15.4324V23ZM56.7344 23H53.571V11.0281H56.5397V12.4637C57.586 10.8577 58.8027 10.7117 60.0923 10.7117H60.506V13.948C60.214 13.8994 59.922 13.875 59.63 13.875C57.6834 13.875 56.7344 14.8484 56.7344 16.7707V23ZM72.1687 23H69.1757V21.321C68.3484 22.6837 67.1074 23.3163 65.4527 23.3163C63.068 23.3163 61.389 21.54 61.389 18.912V11.0281H64.5524V18.4254C64.5524 19.934 65.2337 20.664 66.572 20.664C68.178 20.664 69.0297 19.5204 69.0297 17.9387V11.0281H72.1687V23Z" fill="#053C42"/>
<path d="M44.1462 28.3077C44.4545 28.3077 44.6727 28.0184 44.6727 27.601C44.6727 27.1219 44.5019 26.88 44.1414 26.88C43.7999 26.88 43.6244 27.1314 43.6244 27.6389C43.6244 28.0326 43.8521 28.3077 44.1462 28.3077ZM43.6339 28.7489H43.0409V25.5613H43.6481V26.7187C43.8236 26.472 44.0513 26.3534 44.3406 26.3534C44.9431 26.3534 45.2988 26.8515 45.2988 27.5583C45.2988 28.3457 44.8767 28.8105 44.2885 28.8105C44.0039 28.8105 43.7857 28.7014 43.6386 28.4643L43.6339 28.7489ZM47.0132 28.82V28.4405C46.9278 28.6493 46.6716 28.7726 46.3823 28.7726C45.8937 28.7726 45.5285 28.4405 45.5285 27.9283V26.4151H46.1451V27.8381C46.1451 28.1275 46.2779 28.2745 46.5388 28.2745C46.8187 28.2745 47.0132 28.0895 47.0132 27.8381V26.4151H47.6298V28.8105C47.6298 29.4699 47.1555 29.8541 46.5578 29.8541C45.8747 29.8541 45.5285 29.4794 45.5285 28.8769H46.1024C46.1024 29.1521 46.2637 29.3228 46.5863 29.3228C46.8092 29.3228 47.0132 29.1283 47.0132 28.82ZM51.0506 27.1219H50.4577C50.4245 26.8942 50.3011 26.8136 50.0213 26.8136C49.7888 26.8136 49.656 26.8705 49.656 27.008C49.656 27.1456 49.7841 27.2025 50.0355 27.2737C50.3011 27.3496 50.5525 27.4017 50.7328 27.4729C50.9794 27.5725 51.117 27.7338 51.117 28.0374C51.117 28.5212 50.7612 28.8105 50.0972 28.8105C49.3809 28.8105 48.9825 28.4738 48.973 27.9994H49.6086C49.6086 28.2176 49.7936 28.3457 50.0924 28.3457C50.3106 28.3457 50.5051 28.2793 50.5051 28.1038C50.5051 27.9377 50.3296 27.8856 50.1304 27.8381C49.7367 27.7433 49.5185 27.6769 49.3524 27.5725C49.1342 27.4349 49.0584 27.2547 49.0584 27.046C49.0584 26.6523 49.3287 26.3534 50.0402 26.3534C50.7138 26.3534 51.0174 26.6191 51.0506 27.1219ZM52.7757 28.82V28.4405C52.6903 28.6493 52.4342 28.7726 52.1448 28.7726C51.6562 28.7726 51.291 28.4405 51.291 27.9283V26.4151H51.9076V27.8381C51.9076 28.1275 52.0404 28.2745 52.3013 28.2745C52.5812 28.2745 52.7757 28.0895 52.7757 27.8381V26.4151H53.3923V28.8105C53.3923 29.4699 52.918 29.8541 52.3203 29.8541C51.6373 29.8541 51.291 29.4794 51.291 28.8769H51.8649C51.8649 29.1521 52.0262 29.3228 52.3488 29.3228C52.5717 29.3228 52.7757 29.1283 52.7757 28.82ZM55.6689 27.1219H55.076C55.0428 26.8942 54.9195 26.8136 54.6396 26.8136C54.4072 26.8136 54.2744 26.8705 54.2744 27.008C54.2744 27.1456 54.4025 27.2025 54.6539 27.2737C54.9195 27.3496 55.1709 27.4017 55.3511 27.4729C55.5978 27.5725 55.7354 27.7338 55.7354 28.0374C55.7354 28.5212 55.3796 28.8105 54.7155 28.8105C53.9993 28.8105 53.6008 28.4738 53.5913 27.9994H54.2269C54.2269 28.2176 54.4119 28.3457 54.7108 28.3457C54.929 28.3457 55.1235 28.2793 55.1235 28.1038C55.1235 27.9377 54.9479 27.8856 54.7487 27.8381C54.355 27.7433 54.1368 27.6769 53.9708 27.5725C53.7526 27.4349 53.6767 27.2547 53.6767 27.046C53.6767 26.6523 53.9471 26.3534 54.6586 26.3534C55.3322 26.3534 55.6357 26.6191 55.6689 27.1219ZM57.205 27.8192V27.212H57.7789V27.8761C57.7789 28.3694 57.4943 28.8105 56.835 28.8105C56.1519 28.8105 55.8815 28.3741 55.8815 27.8713V25.7842H56.4887V26.4151H57.7789V26.8515H56.4887V27.8097C56.4887 28.1038 56.5931 28.2745 56.8445 28.2745C57.0911 28.2745 57.205 28.1085 57.205 27.8192ZM58.6144 27.3543H59.5678C59.5583 27.008 59.3306 26.842 59.0887 26.842C58.842 26.842 58.6381 27.0318 58.6144 27.3543ZM60.2034 27.7433H58.5954C58.6144 28.0943 58.8136 28.322 59.1172 28.322C59.3164 28.322 59.4919 28.2224 59.5346 28.0611H60.1702C60.0279 28.5402 59.6437 28.8105 59.1456 28.8105C58.3677 28.8105 57.9787 28.3836 57.9787 27.5393C57.9787 26.8183 58.3914 26.3534 59.1077 26.3534C59.8239 26.3534 60.2034 26.8183 60.2034 27.7433ZM63.7559 28.7489H63.1535V27.3353C63.1535 27.0555 63.0064 26.8562 62.7882 26.8562C62.5606 26.8562 62.3945 27.0697 62.3945 27.3543V28.7489H61.7779V27.3448C61.7779 26.9701 61.6783 26.8752 61.4079 26.8752C61.1612 26.8752 61.0332 27.027 61.0332 27.3306V28.7489H60.4165V26.4151H60.9952V26.7566C61.1518 26.4483 61.37 26.3534 61.6783 26.3534C61.9961 26.3534 62.1479 26.4531 62.3281 26.7234C62.4562 26.4673 62.6649 26.3534 62.959 26.3534C63.4286 26.3534 63.7559 26.695 63.7559 27.1314V28.7489ZM65.9896 27.1219H65.3967C65.3635 26.8942 65.2401 26.8136 64.9603 26.8136C64.7279 26.8136 64.595 26.8705 64.595 27.008C64.595 27.1456 64.7231 27.2025 64.9745 27.2737C65.2401 27.3496 65.4915 27.4017 65.6718 27.4729C65.9185 27.5725 66.056 27.7338 66.056 28.0374C66.056 28.5212 65.7003 28.8105 65.0362 28.8105C64.3199 28.8105 63.9215 28.4738 63.912 27.9994H64.5476C64.5476 28.2176 64.7326 28.3457 65.0314 28.3457C65.2496 28.3457 65.4441 28.2793 65.4441 28.1038C65.4441 27.9377 65.2686 27.8856 65.0694 27.8381C64.6757 27.7433 64.4575 27.6769 64.2915 27.5725C64.0733 27.4349 63.9974 27.2547 63.9974 27.046C63.9974 26.6523 64.2677 26.3534 64.9793 26.3534C65.6528 26.3534 65.9564 26.6191 65.9896 27.1219ZM68.3456 28.7489H67.7242V27.3021C67.7242 26.9511 67.6056 26.842 67.3257 26.842C67.0174 26.842 66.8466 27.0982 66.8466 27.4112V28.7489H66.23V25.5613H66.8466V26.7187C66.9368 26.51 67.2214 26.3534 67.5344 26.3534C68.0135 26.3534 68.3456 26.6333 68.3456 27.0982V28.7489ZM69.2465 28.7489H68.6298V26.4151H69.2465V28.7489ZM69.2465 26.1352H68.6298V25.5613H69.2465V26.1352ZM70.3772 28.7489H69.7701V26.8515H69.4238V26.4151H69.7701C69.7701 25.8459 70.0974 25.5613 70.7615 25.5613V26.0593C70.4484 26.0593 70.3772 26.1447 70.3772 26.4151H70.7757V26.8515H70.3772V28.7489ZM72.2505 27.8192V27.212H72.8245V27.8761C72.8245 28.3694 72.5399 28.8105 71.8805 28.8105C71.1975 28.8105 70.9271 28.3741 70.9271 27.8713V25.7842H71.5343V26.4151H72.8245V26.8515H71.5343V27.8097C71.5343 28.1038 71.6386 28.2745 71.89 28.2745C72.1367 28.2745 72.2505 28.1085 72.2505 27.8192Z" fill="#00BA96"/>
<path d="M11.3501 27.1399C17.6185 27.1399 22.7001 22.0583 22.7001 15.7898C22.7001 9.52133 17.6185 4.43973 11.3501 4.43973C5.0816 4.43973 0 9.52133 0 15.7898C0 22.0583 5.0816 27.1399 11.3501 27.1399Z" fill="#053C42"/>
<path d="M7.89822 9.63595V15.7972C7.89822 20.0358 11.8177 23.1759 15.9524 22.2628V7.84695L7.89822 9.63595Z" fill="white"/>
<path d="M13.4212 10.8014V25.2098L9.383 23.4208C7.77959 22.7082 6.74034 21.1196 6.74034 19.3678V7.84695L9.383 9.0124L13.4212 10.8014Z" fill="#00BA96"/>
</svg>
